PathFileType	4	(X/Y/Z)	 2.5Hzhigh3min.trc
DataRate	CameraRate	NumFrames	NumMarkers	Units	OrigDataRate	OrigDataStartFrame	OrigNumFrames
200	200	11	35	m	200	876	1000
Frame#	Time	C7			LSH			RSH			MAN			RASI			LASI			HIPR			HIPL			RPSI			LPSI			COX			RTHI1			RTHI2			RTHI3			RTHI4			RSHA1			RSHA2			RSHA3			RSHA4			RHEEL			RMET5			RMET1			RTOE			LTHI1			LTHI2			LTHI3			LTHI4			LSHA1			LSHA2			LSHA3			LSHA4			LHEEL			LMET5			LMET1			LTOE			
		X1	Y1	Z1	X2	Y2	Z2	X3	Y3	Z3	X4	Y4	Z4	X5	Y5	Z5	X6	Y6	Z6	X7	Y7	Z7	X8	Y8	Z8	X9	Y9	Z9	X10	Y10	Z10	X11	Y11	Z11	X12	Y12	Z12	X13	Y13	Z13	X14	Y14	Z14	X15	Y15	Z15	X16	Y16	Z16	X17	Y17	Z17	X18	Y18	Z18	X19	Y19	Z19	X20	Y20	Z20	X21	Y21	Z21	X22	Y22	Z22	X23	Y23	Z23	X24	Y24	Z24	X25	Y25	Z25	X26	Y26	Z26	X27	Y27	Z27	X28	Y28	Z28	X29	Y29	Z29	X30	Y30	Z30	X31	Y31	Z31	X32	Y32	Z32	X33	Y33	Z33	X34	Y34	Z34	X35	Y35	Z35	
876	4.3800	-0.276601	1.671097	-0.539111	-0.230321	1.651254	-0.772543	-0.213146	1.654518	-0.338556	-0.130403	1.627631	-0.555393	-0.097465	1.161813	-0.431823	-0.105557	1.152798	-0.656812	-0.157438	1.229550	-0.383503	-0.182720	1.223955	-0.707239	-0.283049	1.186633	-0.478011	-0.289794	1.181879	-0.590164	-0.294823	1.188377	-0.532948	-0.170112	0.945303	-0.344253	-0.155608	0.887870	-0.332940	-0.092876	0.897018	-0.347224	-0.099542	0.957023	-0.359972	-0.273782	0.380695	-0.323088	-0.286108	0.340750	-0.330760	-0.226216	0.329466	-0.332119	-0.218337	0.368651	-0.328106	-0.370286	0.132203	-0.381229	-0.215858	0.028024	-0.321773	-0.171429	0.042901	-0.408988	-0.141733	0.031876	-0.408258	-0.182325	0.896446	-0.740143	-0.159924	0.839255	-0.747329	-0.097405	0.857338	-0.744707	-0.111852	0.915004	-0.738075	-0.294979	0.364191	-0.743076	-0.309767	0.326886	-0.736445	-0.249742	0.308457	-0.736720	-0.241825	0.352116	-0.744242	-0.400249	0.138785	-0.683794	-0.246253	0.031114	-0.749429	-0.203055	0.042460	-0.674805	-0.172675	0.030474	-0.676574	
877	4.3850	-0.276393	1.666433	-0.538913	-0.229934	1.646462	-0.772625	-0.212767	1.649681	-0.338293	-0.130137	1.622761	-0.555324	-0.098290	1.157148	-0.431818	-0.106180	1.148144	-0.656798	-0.158437	1.224561	-0.383372	-0.183603	1.218963	-0.707265	-0.283891	1.181694	-0.478173	-0.290635	1.176899	-0.590150	-0.295669	1.183317	-0.533093	-0.170437	0.940520	-0.344485	-0.155683	0.883180	-0.333077	-0.092957	0.892629	-0.347200	-0.099882	0.952594	-0.360014	-0.274258	0.376588	-0.323211	-0.287046	0.336811	-0.330949	-0.227326	0.324927	-0.332555	-0.219007	0.364030	-0.328505	-0.373174	0.128673	-0.381276	-0.216521	0.027394	-0.320844	-0.172115	0.042447	-0.408798	-0.142320	0.031396	-0.408302	-0.182630	0.891571	-0.740040	-0.160192	0.834404	-0.747347	-0.097676	0.852577	-0.744923	-0.112209	0.910181	-0.738194	-0.296178	0.360695	-0.742963	-0.311489	0.323673	-0.736116	-0.251521	0.304527	-0.736313	-0.243254	0.348066	-0.744057	-0.403408	0.135530	-0.683434	-0.247772	0.030138	-0.749977	-0.203916	0.042279	-0.675352	-0.173217	0.030258	-0.676877	
878	4.3900	-0.276210	1.661660	-0.538777	-0.229493	1.641541	-0.772719	-0.212419	1.644754	-0.338036	-0.129794	1.617767	-0.555260	-0.099097	1.152326	-0.431795	-0.106794	1.143342	-0.656778	-0.159480	1.219377	-0.383218	-0.184460	1.213856	-0.707345	-0.284715	1.176634	-0.478314	-0.291338	1.171713	-0.590272	-0.296480	1.178124	-0.533225	-0.170743	0.935651	-0.344626	-0.155704	0.878403	-0.333143	-0.093001	0.888164	-0.347176	-0.100221	0.948083	-0.360053	-0.274904	0.372581	-0.323458	-0.288163	0.332998	-0.331221	-0.228608	0.320486	-0.332938	-0.219824	0.359502	-0.328848	-0.376042	0.125232	-0.381166	-0.217226	0.026865	-0.320058	-0.172935	0.042179	-0.408798	-0.143021	0.031102	-0.408356	-0.182910	0.886554	-0.739939	-0.160414	0.829422	-0.747382	-0.097907	0.847716	-0.745186	-0.112521	0.905251	-0.738353	-0.297562	0.357258	-0.742816	-0.313420	0.320577	-0.735794	-0.253470	0.300695	-0.735990	-0.244937	0.344186	-0.743870	-0.406550	0.132240	-0.683219	-0.249289	0.029240	-0.750510	-0.204933	0.042137	-0.675811	-0.173906	0.030072	-0.677233	
879	4.3950	-0.276049	1.656821	-0.538708	-0.229011	1.636524	-0.772824	-0.212109	1.639768	-0.337789	-0.129367	1.612664	-0.555203	-0.099887	1.147375	-0.431751	-0.107390	1.138421	-0.656757	-0.160553	1.214031	-0.383048	-0.185476	1.208476	-0.707200	-0.285522	1.171466	-0.478437	-0.292070	1.166529	-0.590350	-0.297254	1.172869	-0.533337	-0.170991	0.930746	-0.344673	-0.155645	0.873579	-0.333133	-0.092989	0.883674	-0.347142	-0.100524	0.943543	-0.360077	-0.275588	0.368737	-0.323759	-0.289296	0.329345	-0.331526	-0.229904	0.316233	-0.333258	-0.220672	0.355153	-0.329104	-0.378772	0.121766	-0.381058	-0.217923	0.026349	-0.319396	-0.173718	0.041966	-0.409015	-0.143675	0.030851	-0.408424	-0.183160	0.881416	-0.739869	-0.160570	0.824337	-0.747459	-0.098087	0.842779	-0.745477	-0.112772	0.900228	-0.738537	-0.299020	0.353800	-0.742671	-0.315367	0.317445	-0.735537	-0.255421	0.296928	-0.735783	-0.246711	0.340425	-0.743800	-0.409597	0.128637	-0.683144	-0.250526	0.028577	-0.751438	-0.205913	0.042032	-0.676195	-0.174536	0.029926	-0.677546	
880	4.4000	-0.275909	1.651967	-0.538695	-0.228514	1.631461	-0.772933	-0.211848	1.634763	-0.337558	-0.128855	1.607482	-0.555157	-0.100665	1.142313	-0.431690	-0.107958	1.133415	-0.656743	-0.161638	1.208564	-0.382866	-0.186229	1.203075	-0.707349	-0.286320	1.166214	-0.478540	-0.292888	1.161394	-0.590255	-0.297992	1.167525	-0.533418	-0.171162	0.925879	-0.344641	-0.155505	0.868787	-0.333064	-0.092907	0.879214	-0.347100	-0.100767	0.939040	-0.360083	-0.276193	0.365051	-0.324066	-0.290311	0.325844	-0.331843	-0.231051	0.312210	-0.333526	-0.221427	0.351035	-0.329284	-0.381356	0.118202	-0.381036	-0.218513	0.025864	-0.318779	-0.174312	0.041823	-0.409324	-0.144103	0.030631	-0.408515	-0.183405	0.876189	-0.739863	-0.160678	0.819177	-0.747595	-0.098235	0.837802	-0.745783	-0.113007	0.895148	-0.738738	-0.300426	0.350240	-0.742582	-0.317163	0.314172	-0.735399	-0.257223	0.293162	-0.735691	-0.248389	0.336687	-0.743821	-0.412534	0.124628	-0.683068	-0.251457	0.027786	-0.752644	-0.206756	0.041902	-0.676510	-0.175026	0.029798	-0.677816	
881	4.4050	-0.275784	1.647160	-0.538725	-0.228027	1.626393	-0.773046	-0.211637	1.629777	-0.337345	-0.128256	1.602253	-0.555125	-0.101437	1.137179	-0.431620	-0.108512	1.128350	-0.656732	-0.162716	1.203018	-0.382674	-0.187294	1.197410	-0.707132	-0.287120	1.160907	-0.478608	-0.293481	1.156052	-0.590261	-0.298657	1.162158	-0.533477	-0.171261	0.921123	-0.344544	-0.155294	0.864113	-0.332957	-0.092766	0.874851	-0.347060	-0.100947	0.934626	-0.360076	-0.276627	0.361489	-0.324319	-0.291082	0.322470	-0.332096	-0.231943	0.308386	-0.333761	-0.221992	0.347132	-0.329412	-0.383725	0.114430	-0.381301	-0.218951	0.025402	-0.318151	-0.174653	0.041763	-0.409600	-0.144259	0.030468	-0.408621	-0.183682	0.870920	-0.739952	-0.160780	0.813983	-0.747804	-0.098390	0.832821	-0.746090	-0.113284	0.890059	-0.738923	-0.301679	0.346539	-0.742620	-0.318655	0.310652	-0.735397	-0.258777	0.289334	-0.735670	-0.249809	0.332871	-0.743933	-0.415243	0.120393	-0.683088	-0.252069	0.027034	-0.753874	-0.207439	0.041772	-0.676736	-0.175355	0.029700	-0.678009	
882	4.4100	-0.275662	1.642463	-0.538774	-0.227574	1.621368	-0.773158	-0.211479	1.624860	-0.337148	-0.127570	1.597015	-0.555109	-0.102201	1.132009	-0.431548	-0.109052	1.123274	-0.656727	-0.163768	1.197442	-0.382475	-0.187997	1.191885	-0.707283	-0.287924	1.155579	-0.478642	-0.294189	1.150687	-0.590243	-0.299295	1.156789	-0.533493	-0.171304	0.916552	-0.344395	-0.155041	0.859615	-0.332823	-0.092596	0.870625	-0.347035	-0.101076	0.930357	-0.360070	-0.276846	0.357989	-0.324513	-0.291576	0.319151	-0.332275	-0.232547	0.304692	-0.334000	-0.222327	0.343367	-0.329534	-0.385864	0.110551	-0.381857	-0.219253	0.024948	-0.317533	-0.174787	0.041727	-0.409783	-0.144200	0.030346	-0.408672	-0.184036	0.865672	-0.740152	-0.160937	0.808820	-0.748094	-0.098608	0.827876	-0.746403	-0.113670	0.885003	-0.739106	-0.302708	0.342693	-0.742796	-0.319796	0.306868	-0.735558	-0.260032	0.285413	-0.735664	-0.250910	0.328864	-0.744056	-0.417695	0.116161	-0.683073	-0.252547	0.026410	-0.754967	-0.207977	0.041663	-0.676890	-0.175536	0.029626	-0.678113	
883	4.4150	-0.275534	1.637945	-0.538817	-0.227182	1.616447	-0.773270	-0.211373	1.620065	-0.336964	-0.126799	1.591811	-0.555114	-0.102954	1.126855	-0.431485	-0.109563	1.118240	-0.656727	-0.164783	1.191890	-0.382273	-0.189052	1.186096	-0.707018	-0.288730	1.150273	-0.478658	-0.294865	1.145548	-0.590141	-0.299893	1.151477	-0.533495	-0.171319	0.912205	-0.344202	-0.154793	0.855331	-0.332661	-0.092438	0.866578	-0.347016	-0.101185	0.926270	-0.360061	-0.276850	0.354544	-0.324637	-0.291819	0.315858	-0.332412	-0.232900	0.301072	-0.334277	-0.222457	0.339675	-0.329701	-0.387781	0.106720	-0.382648	-0.219466	0.024535	-0.316987	-0.174820	0.041694	-0.409857	-0.144033	0.030254	-0.408627	-0.184503	0.860517	-0.740447	-0.161200	0.803751	-0.748452	-0.098936	0.823020	-0.746733	-0.114190	0.880018	-0.739321	-0.303512	0.338741	-0.743085	-0.320638	0.302869	-0.735835	-0.260997	0.281437	-0.735651	-0.251681	0.324700	-0.744159	-0.419850	0.112058	-0.683178	-0.252893	0.025890	-0.755942	-0.208404	0.041572	-0.676988	-0.175613	0.029574	-0.678162	
884	4.4200	-0.275396	1.633663	-0.538838	-0.226877	1.611690	-0.773381	-0.211317	1.615442	-0.336785	-0.125954	1.586690	-0.555146	-0.103687	1.121768	-0.431437	-0.110064	1.113284	-0.656733	-0.165748	1.186423	-0.382074	-0.189695	1.180527	-0.707182	-0.289544	1.145033	-0.478654	-0.295467	1.140359	-0.590109	-0.300452	1.146229	-0.533465	-0.171351	0.908117	-0.343971	-0.154595	0.851310	-0.332463	-0.092330	0.862741	-0.346978	-0.101306	0.922400	-0.360032	-0.276693	0.351162	-0.324709	-0.291869	0.312555	-0.332519	-0.233047	0.297497	-0.334602	-0.222418	0.336038	-0.329927	-0.389455	0.103090	-0.383549	-0.219646	0.024179	-0.316528	-0.174840	0.041670	-0.409865	-0.143841	0.030185	-0.408544	-0.185096	0.855557	-0.740799	-0.161605	0.798869	-0.748849	-0.099400	0.818339	-0.747096	-0.114868	0.875170	-0.739612	-0.304148	0.334788	-0.743453	-0.321255	0.298812	-0.736202	-0.261757	0.277478	-0.735582	-0.252217	0.320530	-0.744202	-0.421762	0.108196	-0.683257	-0.253092	0.025443	-0.756787	-0.208761	0.041502	-0.677045	-0.175644	0.029532	-0.678176	
885	4.4250	-0.275243	1.629664	-0.538830	-0.226679	1.607149	-0.773489	-0.211313	1.611039	-0.336601	-0.125065	1.581724	-0.555203	-0.104392	1.116818	-0.431401	-0.110558	1.108451	-0.656742	-0.166663	1.181105	-0.381884	-0.190721	1.174893	-0.706914	-0.290355	1.139917	-0.478648	-0.296280	1.135385	-0.589941	-0.300971	1.141105	-0.533429	-0.171433	0.904311	-0.343711	-0.154482	0.847563	-0.332228	-0.092297	0.859135	-0.346894	-0.101461	0.918775	-0.359957	-0.276419	0.347856	-0.324744	-0.291786	0.309252	-0.332620	-0.233049	0.293991	-0.334978	-0.222258	0.332480	-0.330218	-0.390881	0.099700	-0.384537	-0.219799	0.023893	-0.316175	-0.174874	0.041646	-0.409862	-0.143665	0.030134	-0.408477	-0.185804	0.850910	-0.741156	-0.162162	0.794286	-0.749240	-0.100004	0.813924	-0.747503	-0.115670	0.870602	-0.739998	-0.304703	0.330961	-0.743845	-0.321774	0.294843	-0.736598	-0.262414	0.273650	-0.735455	-0.252667	0.316496	-0.744188	-0.423482	0.104534	-0.683268	-0.253220	0.025082	-0.757465	-0.209081	0.041460	-0.677079	-0.175665	0.029499	-0.678185	
886	4.4300	-0.275076	1.625981	-0.538790	-0.226601	1.602885	-0.773588	-0.211364	1.606908	-0.336407	-0.124175	1.577007	-0.555275	-0.105061	1.112074	-0.431376	-0.111031	1.103808	-0.656770	-0.167517	1.176001	-0.381722	-0.191408	1.169443	-0.706970	-0.291153	1.135005	-0.478660	-0.296966	1.130496	-0.589912	-0.301446	1.136165	-0.533415	-0.171578	0.900802	-0.343443	-0.154479	0.844100	-0.331972	-0.092350	0.855787	-0.346743	-0.101663	0.915416	-0.359816	-0.276081	0.344702	-0.324760	-0.291644	0.306008	-0.332735	-0.232961	0.290628	-0.335399	-0.222036	0.329062	-0.330569	-0.392124	0.096614	-0.385483	-0.219921	0.023674	-0.315920	-0.174919	0.041616	-0.409863	-0.143514	0.030096	-0.408424	-0.186599	0.846690	-0.741464	-0.162863	0.790118	-0.749591	-0.100733	0.809866	-0.747941	-0.116560	0.866415	-0.740445	-0.305252	0.327367	-0.744190	-0.322339	0.291172	-0.736953	-0.263045	0.270069	-0.735282	-0.253160	0.312760	-0.744119	-0.425046	0.101042	-0.683143	-0.253332	0.024763	-0.758004	-0.209389	0.041436	-0.677099	-0.175701	0.029466	-0.678201	
